<svg width="44" height="41" viewBox="0 0 44 41" fill="none" xmlns="http://www.w3.org/2000/svg">
<path d="M43.5 20.5C43.5 31.513 33.908 40.5 22 40.5C10.092 40.5 0.5 31.513 0.5 20.5C0.5 9.48697 10.092 0.5 22 0.5C33.908 0.5 43.5 9.48697 43.5 20.5Z" fill="white" stroke="#F81414"/>
<path d="M20 14H24C24 12.8954 23.1046 12 22 12C20.8954 12 20 12.8954 20 14ZM18.5 14C18.5 12.067 20.067 10.5 22 10.5C23.933 10.5 25.5 12.067 25.5 14H31.25C31.6642 14 32 14.3358 32 14.75C32 15.1642 31.6642 15.5 31.25 15.5H29.9309L28.7589 27.6112C28.5729 29.5334 26.9575 31 25.0263 31H18.9737C17.0425 31 15.4271 29.5334 15.2411 27.6112L14.0691 15.5H12.75C12.3358 15.5 12 15.1642 12 14.75C12 14.3358 12.3358 14 12.75 14H18.5ZM20.5 18.75C20.5 18.3358 20.1642 18 19.75 18C19.3358 18 19 18.3358 19 18.75V26.25C19 26.6642 19.3358 27 19.75 27C20.1642 27 20.5 26.6642 20.5 26.25V18.75ZM24.25 18C23.8358 18 23.5 18.3358 23.5 18.75V26.25C23.5 26.6642 23.8358 27 24.25 27C24.6642 27 25 26.6642 25 26.25V18.75C25 18.3358 24.6642 18 24.25 18Z" fill="#212121"/>
</svg>
