<svg width="139" height="62" viewBox="0 0 139 62" fill="none" xmlns="http://www.w3.org/2000/svg">
<path d="M33.34 7.96V10.7H29.62V22H26.2V10.7H22.48V7.96H33.34ZM35.5764 16.4C35.5764 15.2533 35.7897 14.2467 36.2164 13.38C36.6564 12.5133 37.2497 11.8467 37.9964 11.38C38.7431 10.9133 39.5764 10.68 40.4964 10.68C41.2831 10.68 41.9697 10.84 42.5564 11.16C43.1564 11.48 43.6164 11.9 43.9364 12.42V10.84H47.3564V22H43.9364V20.42C43.6031 20.94 43.1364 21.36 42.5364 21.68C41.9497 22 41.2631 22.16 40.4764 22.16C39.5697 22.16 38.7431 21.9267 37.9964 21.46C37.2497 20.98 36.6564 20.3067 36.2164 19.44C35.7897 18.56 35.5764 17.5467 35.5764 16.4ZM43.9364 16.42C43.9364 15.5667 43.6964 14.8933 43.2164 14.4C42.7497 13.9067 42.1764 13.66 41.4964 13.66C40.8164 13.66 40.2364 13.9067 39.7564 14.4C39.2897 14.88 39.0564 15.5467 39.0564 16.4C39.0564 17.2533 39.2897 17.9333 39.7564 18.44C40.2364 18.9333 40.8164 19.18 41.4964 19.18C42.1764 19.18 42.7497 18.9333 43.2164 18.44C43.6964 17.9467 43.9364 17.2733 43.9364 16.42ZM55.5706 22.16C54.5973 22.16 53.7306 21.9933 52.9706 21.66C52.2106 21.3267 51.6106 20.8733 51.1706 20.3C50.7306 19.7133 50.484 19.06 50.4306 18.34H53.8106C53.8506 18.7267 54.0306 19.04 54.3506 19.28C54.6706 19.52 55.064 19.64 55.5306 19.64C55.9573 19.64 56.284 19.56 56.5106 19.4C56.7506 19.2267 56.8706 19.0067 56.8706 18.74C56.8706 18.42 56.704 18.1867 56.3706 18.04C56.0373 17.88 55.4973 17.7067 54.7506 17.52C53.9506 17.3333 53.284 17.14 52.7506 16.94C52.2173 16.7267 51.7573 16.4 51.3706 15.96C50.984 15.5067 50.7906 14.9 50.7906 14.14C50.7906 13.5 50.964 12.92 51.3106 12.4C51.6706 11.8667 52.1906 11.4467 52.8706 11.14C53.564 10.8333 54.384 10.68 55.3306 10.68C56.7306 10.68 57.8306 11.0267 58.6306 11.72C59.444 12.4133 59.9106 13.3333 60.0306 14.48H56.8706C56.8173 14.0933 56.644 13.7867 56.3506 13.56C56.0706 13.3333 55.6973 13.22 55.2306 13.22C54.8306 13.22 54.524 13.3 54.3106 13.46C54.0973 13.6067 53.9906 13.8133 53.9906 14.08C53.9906 14.4 54.1573 14.64 54.4906 14.8C54.8373 14.96 55.3706 15.12 56.0906 15.28C56.9173 15.4933 57.5906 15.7067 58.1106 15.92C58.6306 16.12 59.084 16.4533 59.4706 16.92C59.8706 17.3733 60.0773 17.9867 60.0906 18.76C60.0906 19.4133 59.904 20 59.5306 20.52C59.1706 21.0267 58.644 21.4267 57.9506 21.72C57.2706 22.0133 56.4773 22.16 55.5706 22.16ZM70.203 22L66.803 17.32V22H63.383V7.2H66.803V15.38L70.183 10.84H74.403L69.763 16.44L74.443 22H70.203Z" fill="#BE6464"/>
<path d="M18.144 26.536V30.92H12.192V49H6.72V30.92H0.768V26.536H18.144ZM28.2823 34.12C28.9223 33.1387 29.7223 32.3707 30.6823 31.816C31.6423 31.24 32.7089 30.952 33.8823 30.952V36.744H32.3783C31.0129 36.744 29.9889 37.0427 29.3063 37.64C28.6236 38.216 28.2823 39.24 28.2823 40.712V49H22.8103V31.144H28.2823V34.12ZM37.3298 40.04C37.3298 38.2053 37.6711 36.5947 38.3538 35.208C39.0578 33.8213 40.0071 32.7547 41.2018 32.008C42.3964 31.2613 43.7298 30.888 45.2018 30.888C46.4604 30.888 47.5591 31.144 48.4978 31.656C49.4578 32.168 50.1938 32.84 50.7058 33.672V31.144H56.1778V49H50.7058V46.472C50.1724 47.304 49.4258 47.976 48.4658 48.488C47.5271 49 46.4284 49.256 45.1698 49.256C43.7191 49.256 42.3964 48.8827 41.2018 48.136C40.0071 47.368 39.0578 46.2907 38.3538 44.904C37.6711 43.496 37.3298 41.8747 37.3298 40.04ZM50.7058 40.072C50.7058 38.7067 50.3218 37.6293 49.5538 36.84C48.8071 36.0507 47.8898 35.656 46.8018 35.656C45.7138 35.656 44.7858 36.0507 44.0178 36.84C43.2711 37.608 42.8978 38.6747 42.8978 40.04C42.8978 41.4053 43.2711 42.4933 44.0178 43.304C44.7858 44.0933 45.7138 44.488 46.8018 44.488C47.8898 44.488 48.8071 44.0933 49.5538 43.304C50.3218 42.5147 50.7058 41.4373 50.7058 40.072ZM60.9685 40.072C60.9685 38.216 61.3418 36.5947 62.0885 35.208C62.8565 33.8213 63.9125 32.7547 65.2565 32.008C66.6218 31.2613 68.1792 30.888 69.9285 30.888C72.1685 30.888 74.0352 31.4747 75.5285 32.648C77.0432 33.8213 78.0352 35.4747 78.5045 37.608H72.6805C72.1898 36.2427 71.2405 35.56 69.8325 35.56C68.8298 35.56 68.0298 35.9547 67.4325 36.744C66.8352 37.512 66.5365 38.6213 66.5365 40.072C66.5365 41.5227 66.8352 42.6427 67.4325 43.432C68.0298 44.2 68.8298 44.584 69.8325 44.584C71.2405 44.584 72.1898 43.9013 72.6805 42.536H78.5045C78.0352 44.6267 77.0432 46.2693 75.5285 47.464C74.0138 48.6587 72.1472 49.256 69.9285 49.256C68.1792 49.256 66.6218 48.8827 65.2565 48.136C63.9125 47.3893 62.8565 46.3227 62.0885 44.936C61.3418 43.5493 60.9685 41.928 60.9685 40.072ZM94.2635 49L88.8235 41.512V49H83.3515V25.32H88.8235V38.408L94.2315 31.144H100.984L93.5595 40.104L101.048 49H94.2635ZM121.885 39.784C121.885 40.296 121.853 40.8293 121.789 41.384H109.405C109.49 42.4933 109.842 43.3467 110.461 43.944C111.101 44.52 111.879 44.808 112.797 44.808C114.162 44.808 115.111 44.232 115.645 43.08H121.469C121.17 44.2533 120.626 45.3093 119.837 46.248C119.069 47.1867 118.098 47.9227 116.925 48.456C115.751 48.9893 114.439 49.256 112.989 49.256C111.239 49.256 109.682 48.8827 108.317 48.136C106.951 47.3893 105.885 46.3227 105.117 44.936C104.349 43.5493 103.965 41.928 103.965 40.072C103.965 38.216 104.338 36.5947 105.085 35.208C105.853 33.8213 106.919 32.7547 108.285 32.008C109.65 31.2613 111.218 30.888 112.989 30.888C114.717 30.888 116.253 31.2507 117.597 31.976C118.941 32.7013 119.986 33.736 120.733 35.08C121.501 36.424 121.885 37.992 121.885 39.784ZM116.285 38.344C116.285 37.4053 115.965 36.6587 115.325 36.104C114.685 35.5493 113.885 35.272 112.925 35.272C112.007 35.272 111.229 35.5387 110.589 36.072C109.97 36.6053 109.586 37.3627 109.437 38.344H116.285ZM132.163 34.12C132.803 33.1387 133.603 32.3707 134.563 31.816C135.523 31.24 136.59 30.952 137.763 30.952V36.744H136.259C134.894 36.744 133.87 37.0427 133.187 37.64C132.505 38.216 132.163 39.24 132.163 40.712V49H126.691V31.144H132.163V34.12Z" fill="#7AAC68"/>
</svg>
