<svg width="52" height="49" viewBox="0 0 52 49" fill="none" xmlns="http://www.w3.org/2000/svg">
<g filter="url(#filter0_d_1_253)">
<path d="M47.5 20.5C47.5 31.513 37.908 40.5 26 40.5C14.092 40.5 4.5 31.513 4.5 20.5C4.5 9.48697 14.092 0.5 26 0.5C37.908 0.5 47.5 9.48697 47.5 20.5Z" fill="white" stroke="#7AAC68"/>
<path d="M22.25 31H26.8096C25.6888 29.8321 25 28.2465 25 26.5C25 25.8787 25.0872 25.2778 25.2499 24.7087L25.2493 18.5081L24.2887 19.4692L24.2045 19.5418C23.9109 19.7597 23.4943 19.7355 23.228 19.4692C22.9617 19.2029 22.9375 18.7863 23.1554 18.4927L23.228 18.4085L25.4697 16.1669L25.5218 16.1193L25.5767 16.078L25.6535 16.0318L25.7651 15.9847L25.8615 15.96L25.9532 15.9486H26.0468L26.1393 15.9602L26.2019 15.9747L26.3026 16.0107L26.3631 16.0408L26.4296 16.0823L26.4921 16.1312L26.5303 16.1669L28.772 18.4085L28.8446 18.4927C29.0383 18.7536 29.0407 19.1119 28.8518 19.3752L28.772 19.4692L28.6879 19.5418C28.4269 19.7355 28.0687 19.7379 27.8053 19.549L27.7113 19.4692L26.7493 18.5081L26.7497 22.0632C27.936 20.7936 29.6253 20 31.5 20C31.6682 20 31.835 20.0064 32 20.0189V13.25C32 12.0074 30.9926 11 29.75 11H22.25C21.0074 11 20 12.0074 20 13.25V28.75C20 29.9926 21.0074 31 22.25 31ZM37 26.5C37 29.5376 34.5376 32 31.5 32C28.4624 32 26 29.5376 26 26.5C26 23.4624 28.4624 21 31.5 21C34.5376 21 37 23.4624 37 26.5ZM34.8536 24.1464C34.6583 23.9512 34.3417 23.9512 34.1464 24.1464L30.5 27.7929L28.8536 26.1464C28.6583 25.9512 28.3417 25.9512 28.1464 26.1464C27.9512 26.3417 27.9512 26.6583 28.1464 26.8536L30.1464 28.8536C30.3417 29.0488 30.6583 29.0488 30.8536 28.8536L34.8536 24.8536C35.0488 24.6583 35.0488 24.3417 34.8536 24.1464Z" fill="#212121"/>
</g>
<defs>
<filter id="filter0_d_1_253" x="0" y="0" width="52" height="49" filterUnits="userSpaceOnUse" color-interpolation-filters="sRGB">
<feFlood flood-opacity="0" result="BackgroundImageFix"/>
<feColorMatrix in="SourceAlpha" type="matrix" values="0 0 0 0 0 0 0 0 0 0 0 0 0 0 0 0 0 0 127 0" result="hardAlpha"/>
<feOffset dy="4"/>
<feGaussianBlur stdDeviation="2"/>
<feComposite in2="hardAlpha" operator="out"/>
<feColorMatrix type="matrix" values="0 0 0 0 0 0 0 0 0 0 0 0 0 0 0 0 0 0 0.25 0"/>
<feBlend mode="normal" in2="BackgroundImageFix" result="effect1_dropShadow_1_253"/>
<feBlend mode="normal" in="SourceGraphic" in2="effect1_dropShadow_1_253" result="shape"/>
</filter>
</defs>
</svg>
