<svg width="57" height="61" viewBox="0 0 57 61" fill="none" xmlns="http://www.w3.org/2000/svg">
<path d="M56 27.5C56 42.1022 43.7218 54 28.5 54C13.2782 54 1 42.1022 1 27.5C1 12.8978 13.2782 1 28.5 1C43.7218 1 56 12.8978 56 27.5Z" fill="#BE6464" stroke="white" stroke-width="2"/>
<path d="M29 32L29 13" stroke="white" stroke-width="4" stroke-linecap="round"/>
<path d="M28.6477 40.25C27.9583 40.25 27.3674 40.0076 26.875 39.5227C26.3826 39.0379 26.1402 38.447 26.1477 37.75C26.1402 37.0682 26.3826 36.4848 26.875 36C27.3674 35.5152 27.9583 35.2727 28.6477 35.2727C29.3144 35.2727 29.8939 35.5152 30.3864 36C30.8864 36.4848 31.1402 37.0682 31.1477 37.75C31.1402 38.2121 31.0189 38.6326 30.7841 39.0114C30.5568 39.3902 30.2538 39.6932 29.875 39.9205C29.5038 40.1402 29.0947 40.25 28.6477 40.25Z" fill="white"/>
</svg>
